<?xml version="1.0" standalone="no"?>
<!DOCTYPE svg PUBLIC "-//W3C//DTD SVG 20010904//EN"
 "http://www.w3.org/TR/2001/REC-SVG-20010904/DTD/svg10.dtd">
<svg version="1.0" xmlns="http://www.w3.org/2000/svg"
 width="535.000000pt" height="535.000000pt" viewBox="0 0 535.000000 535.000000"
 preserveAspectRatio="xMidYMid meet">
<metadata>
Created by potrace 1.14, written by Peter Selinger 2001-2017
</metadata>
<g transform="translate(0.000000,535.000000) scale(0.100000,-0.100000)"
fill="#000000" stroke="none">
<path d="M2768 4815 c-2 -1 -52 -5 -113 -8 -60 -4 -119 -9 -131 -11 -12 -2
-45 -7 -75 -11 -75 -9 -267 -58 -374 -95 -109 -38 -346 -153 -435 -211 -185
-121 -329 -247 -466 -404 -73 -84 -174 -220 -174 -234 0 -6 -4 -11 -10 -11 -5
0 -10 -4 -10 -10 0 -5 -16 -34 -35 -64 -76 -119 -166 -333 -215 -513 l-28
-103 26 14 c15 7 37 17 50 21 l23 7 -3 -98 -3 -97 -95 -55 c-222 -127 -421
-295 -594 -502 -107 -128 -108 -130 -16 -54 294 244 652 425 1035 524 137 35
159 36 202 10 35 -21 50 -61 74 -200 7 -41 20 -113 29 -160 19 -97 12 -145
-24 -172 -13 -9 -70 -35 -127 -58 -129 -51 -373 -177 -505 -260 -131 -84 -335
-235 -464 -347 -107 -92 -171 -157 -90 -91 123 100 391 268 579 364 l106 54 3
-102 c2 -75 -1 -104 -10 -109 -55 -32 -55 -31 -15 -110 48 -97 147 -261 167
-279 3 -3 17 -21 30 -40 13 -19 29 -40 35 -46 5 -6 29 -33 52 -60 331 -387
771 -634 1283 -719 807 -134 1639 227 2101 912 47 69 49 75 30 80 -18 5 -21
13 -21 65 l0 60 48 -7 c53 -8 251 -8 309 0 151 23 228 42 331 82 67 27 79 39
21 23 -19 -6 -50 -13 -69 -16 -19 -3 -37 -7 -40 -9 -11 -7 -150 -18 -225 -19
-82 0 -246 12 -268 19 -7 2 -25 6 -42 8 -16 3 -50 10 -75 17 -25 7 -54 14 -64
16 -38 7 -182 58 -246 86 -115 52 -123 69 -95 203 9 39 18 84 20 100 19 109
29 136 56 150 14 8 35 12 45 10 11 -3 60 -16 109 -30 241 -67 458 -77 660 -30
77 18 237 74 250 87 7 8 5 9 -8 5 -40 -14 -179 -22 -322 -18 l-40 1 0 223 c-1
262 -8 352 -40 507 -3 14 -7 36 -10 50 -11 59 -65 232 -100 320 -164 411 -456
765 -830 1006 -136 87 -317 174 -465 224 -76 26 -275 76 -340 85 -80 12 -93
14 -195 20 -55 4 -115 8 -132 9 -18 2 -34 2 -35 1z m-1065 -1586 c-4 -4 -47
-10 -94 -14 l-86 -6 -1 85 c0 48 4 88 8 91 4 3 43 8 86 11 44 3 81 8 84 11 3
3 6 -35 8 -83 2 -48 -1 -90 -5 -95z m308 171 c1 -3 2 -42 3 -87 l1 -83 -96 0
-97 0 1 89 1 89 93 -1 c51 -1 94 -4 94 -7z m297 -29 c1 -1 2 -40 2 -87 l0 -86
-47 6 c-92 12 -128 18 -133 21 -4 3 -6 146 -1 166 1 4 152 -13 179 -20z m-900
-93 l-3 -92 -60 -13 c-33 -7 -74 -15 -92 -18 l-32 -6 1 90 1 89 41 11 c37 9
119 27 139 30 4 1 6 -40 5 -91z m1135 47 c26 -8 47 -11 47 -7 0 3 5 1 11 -5
11 -11 16 -160 5 -170 -3 -3 -27 0 -53 7 -26 6 -59 14 -73 16 -61 11 -60 9
-60 100 l0 85 38 -7 c20 -3 58 -12 85 -19z m-1433 -120 c0 -94 0 -95 -27 -101
-15 -4 -38 -13 -52 -20 -14 -8 -34 -14 -43 -14 -9 0 -19 -4 -22 -9 -3 -5 -17
-11 -31 -13 l-25 -5 2 88 c0 48 4 92 7 97 4 7 132 55 189 71 1 1 2 -42 2 -94z
m1717 44 c36 -10 68 -21 71 -23 4 -5 6 -77 3 -147 l-1 -27 -87 27 -88 27 0 87
c-1 81 1 87 18 81 11 -3 48 -14 84 -25z m298 -100 l50 -19 -2 -81 c-1 -44 -3
-83 -6 -85 -2 -3 -37 8 -78 23 l-74 28 1 80 c1 44 2 83 3 87 0 4 13 3 29 -3
15 -6 50 -19 77 -30z m289 -113 l39 -21 -1 -72 c-1 -40 -1 -77 -1 -83 -1 -9
-46 4 -118 36 -17 8 -35 14 -40 14 -4 0 -8 40 -8 89 l0 88 45 -15 c25 -9 62
-25 84 -36z m-1143 -9 c53 -7 78 -24 86 -58 7 -24 10 -402 4 -481 0 -10 -11
-26 -22 -37 -20 -19 -35 -20 -223 -19 -206 1 -278 -3 -403 -23 -81 -13 -118
-7 -132 20 -9 16 -34 117 -55 221 -3 14 -7 36 -10 50 -54 252 -55 267 -13 294
12 8 51 17 87 20 36 3 99 8 140 12 41 3 76 7 78 9 5 5 422 -2 463 -8z m424
-72 c201 -45 496 -137 516 -162 16 -19 15 -70 -6 -278 -1 -16 -6 -61 -10 -100
-10 -104 -35 -123 -126 -98 -82 24 -366 81 -434 88 -166 16 -155 -4 -155 296
l0 248 26 20 c15 12 36 19 48 16 11 -2 75 -16 141 -30z m961 -19 c38 -17 71
-31 73 -33 7 -5 8 -163 1 -163 -3 0 -42 15 -86 33 l-80 32 2 80 c2 91 1 88 12
83 4 -1 39 -16 78 -32z m343 -153 c8 -6 7 -153 0 -153 -6 0 -51 18 -119 47
-38 16 -37 13 -31 155 1 15 11 13 74 -15 39 -17 74 -32 76 -34z m259 -97 c9
-5 12 -31 11 -82 -2 -84 7 -80 -96 -42 -34 12 -53 25 -54 36 -1 31 -2 77 0
108 l1 31 63 -22 c34 -11 68 -24 75 -29z m-792 18 c22 -9 53 -22 69 -29 17 -8
118 -50 225 -95 107 -45 213 -90 235 -100 22 -9 50 -21 63 -24 20 -7 57 -58
48 -67 -2 -2 -7 -24 -10 -49 -6 -42 -9 -62 -21 -127 -3 -16 -10 -59 -16 -98
-16 -99 -31 -125 -76 -125 -13 0 -146 49 -295 109 -150 59 -295 116 -321 126
-70 25 -73 37 -52 220 3 22 7 74 10 115 8 104 12 120 31 141 21 23 59 24 110
3z m954 -65 c38 -11 59 -17 90 -23 11 -3 24 -7 28 -10 7 -4 6 -155 -1 -162 -2
-2 -37 7 -78 19 l-74 23 -3 82 c-2 45 -1 82 0 82 2 0 19 -5 38 -11z m352 -73
c28 -4 30 -11 32 -95 1 -75 -3 -86 -26 -82 -4 0 -22 3 -40 5 -86 11 -83 8 -83
102 l-1 86 51 -7 c27 -3 58 -7 67 -9z m-2494 -245 c32 -1 32 -1 32 -51 l0 -50
-92 2 -93 3 0 40 c-1 60 0 62 63 59 31 -1 72 -2 90 -3z m-262 -51 c0 -27 -3
-50 -6 -51 -9 -1 -44 -6 -102 -13 l-58 -7 0 55 c0 34 5 56 13 59 6 2 44 5 83
6 l70 2 0 -51z m557 24 c13 -4 17 -16 17 -55 l0 -49 -52 6 c-57 7 -86 11 -105
13 -9 1 -13 19 -13 52 l0 51 68 -7 c37 -3 75 -8 85 -11z m-837 -56 l1 -56 -83
-21 c-46 -12 -86 -21 -89 -21 -3 0 -5 29 -5 64 l0 63 43 8 c23 4 56 9 72 12
17 3 32 7 34 9 15 14 26 -10 27 -58z m1089 15 c40 -9 40 -9 40 -57 1 -26 -3
-50 -7 -52 -5 -3 -42 2 -83 11 l-75 17 0 53 0 52 43 -8 c23 -4 60 -12 82 -16z
m-1376 -82 c1 -67 0 -69 -26 -79 -16 -5 -52 -19 -80 -31 l-53 -21 3 77 2 77
70 22 c39 12 73 22 76 23 4 1 7 -30 8 -68z m1611 29 c25 -6 51 -12 58 -12 13
-1 14 -4 16 -66 1 -24 -1 -45 -4 -47 -3 -2 -37 4 -76 14 l-69 17 -5 40 c-7 53
-1 76 19 70 9 -3 36 -10 61 -16z m-1880 -129 l0 -79 -76 -41 c-41 -23 -77 -41
-78 -41 -1 0 -3 40 -4 88 l-1 88 32 17 c31 16 105 45 120 46 4 1 7 -35 7 -78z
m2212 26 c7 -11 7 -107 0 -107 -2 0 -35 9 -72 21 -67 20 -68 21 -72 57 -1 20
-2 47 0 58 l3 21 67 -20 c37 -11 70 -25 74 -30z m203 -65 l70 -28 1 -49 c1
-28 0 -53 -2 -56 -2 -3 -37 6 -79 20 l-75 26 0 58 c0 31 3 57 8 57 4 -1 39
-13 77 -28z m333 -183 c0 -30 -4 -49 -11 -48 -7 0 -39 10 -72 23 l-60 23 -3
56 -3 56 75 -30 75 -31 -1 -49z m195 -29 l67 -25 0 -47 c0 -27 -1 -48 -3 -48
-1 0 -33 11 -71 25 -38 14 -71 25 -72 25 -2 0 -4 23 -4 51 0 28 3 49 8 47 4
-1 38 -14 75 -28z m272 -94 l50 -13 2 -52 c1 -58 11 -56 -92 -21 l-50 17 -2
47 c-1 45 0 47 20 42 12 -4 45 -12 72 -20z"/>
</g>
</svg>
